<svg width="1106" height="300" viewBox="0 0 1106 300" fill="none" xmlns="http://www.w3.org/2000/svg">
<rect x="0.5" y="0.5" width="1105" height="299" fill="white"/>
<rect x="0.5" y="0.5" width="1105" height="299" stroke="#C4C7C7" stroke-dasharray="3 2"/>
<g clip-path="url(#clip0_309_2130)">
<path opacity="0.5" d="M484 1H729V299H484V1Z" fill="#EEEEEE"/>
<path d="M553.341 25.8047V16.7711H556.433C557.137 16.7711 557.716 16.8913 558.17 17.1318C558.625 17.3723 558.963 17.7027 559.183 18.1231C559.403 18.5434 559.513 19.0224 559.513 19.56C559.513 20.0975 559.403 20.5725 559.183 20.9847C558.963 21.397 558.626 21.7194 558.173 21.9518C557.721 22.1842 557.143 22.3004 556.439 22.3004H553.984V21.2758H556.385C556.862 21.2758 557.245 21.206 557.534 21.0666C557.823 20.9271 558.034 20.7291 558.167 20.4724C558.301 20.2158 558.367 19.9116 558.367 19.56C558.367 19.2002 558.301 18.888 558.167 18.6233C558.034 18.3585 557.822 18.1524 557.531 18.0049C557.24 17.8573 556.854 17.7836 556.373 17.7836H554.493V25.8047H553.341ZM558.531 25.8047L556.348 21.7365H557.646L559.865 25.8047H558.531ZM560.556 25.8047L563.836 16.7711H565.17L568.492 25.8047H567.28L565.364 20.4451C565.247 20.1137 565.11 19.7004 564.955 19.2053C564.799 18.7102 564.61 18.0786 564.388 17.3107H564.606C564.388 18.0867 564.199 18.7263 564.039 19.2296C563.88 19.7328 563.747 20.138 563.642 20.4451L561.781 25.8047H560.556ZM562.205 23.2826V22.2761H566.843V23.2826H562.205ZM569.899 25.8047V16.7711H571.536L573.761 22.4701C573.813 22.6035 573.873 22.7702 573.94 22.9703C574.006 23.1704 574.077 23.3876 574.152 23.6221C574.227 23.8565 574.298 24.0899 574.367 24.3223C574.436 24.5547 574.497 24.77 574.549 24.968H574.294C574.351 24.7821 574.414 24.5749 574.482 24.3466C574.551 24.1182 574.623 23.8858 574.698 23.6494C574.772 23.4129 574.844 23.1916 574.913 22.9855C574.982 22.7793 575.042 22.6076 575.095 22.4701L577.289 16.7711H578.932V25.8047H577.799V20.6452C577.799 20.4593 577.8 20.2471 577.802 20.0086C577.804 19.7702 577.808 19.5196 577.814 19.2568C577.82 18.9941 577.826 18.7273 577.832 18.4565C577.838 18.1857 577.843 17.923 577.847 17.6684H577.944C577.859 17.9473 577.769 18.2312 577.674 18.5202C577.579 18.8092 577.487 19.0881 577.396 19.3569C577.305 19.6257 577.219 19.8712 577.138 20.0935C577.057 20.3158 576.988 20.4997 576.932 20.6452L574.913 25.8047H573.912L571.863 20.6452C571.807 20.5038 571.74 20.3249 571.663 20.1087C571.586 19.8924 571.503 19.6519 571.412 19.3872C571.321 19.1224 571.227 18.8436 571.13 18.5505C571.033 18.2575 570.934 17.9634 570.833 17.6684H570.942C570.95 17.8947 570.957 18.1393 570.963 18.402C570.969 18.6647 570.974 18.9305 570.978 19.1992C570.982 19.468 570.986 19.7267 570.99 19.9753C570.994 20.2239 570.996 20.4472 570.996 20.6452V25.8047H569.899ZM580.339 25.8047L583.619 16.7711H584.953L588.275 25.8047H587.063L585.147 20.4451C585.03 20.1137 584.893 19.7004 584.738 19.2053C584.582 18.7102 584.393 18.0786 584.171 17.3107H584.389C584.171 18.0867 583.982 18.7263 583.822 19.2296C583.663 19.7328 583.53 20.138 583.425 20.4451L581.564 25.8047H580.339ZM581.988 23.2826V22.2761H586.626V23.2826H581.988ZM592.501 25.8047H590.318V24.7861H592.428C593.164 24.7861 593.773 24.6457 594.256 24.3648C594.739 24.0839 595.1 23.6807 595.339 23.1552C595.577 22.6298 595.696 22.0013 595.696 21.2697C595.696 20.5462 595.578 19.9248 595.342 19.4054C595.105 18.886 594.753 18.4869 594.287 18.208C593.82 17.9291 593.237 17.7896 592.537 17.7896H590.27V16.7711H592.616C593.497 16.7711 594.25 16.9509 594.875 17.3107C595.499 17.6704 595.978 18.1867 596.312 18.8597C596.645 19.5327 596.812 20.336 596.812 21.2697C596.812 22.2115 596.644 23.0208 596.309 23.6979C595.973 24.3749 595.484 24.8953 594.841 25.259C594.199 25.6228 593.419 25.8047 592.501 25.8047ZM590.834 16.7711V25.8047H589.682V16.7711H590.834ZM597.442 25.8047L600.722 16.7711H602.056L605.379 25.8047H604.166L602.25 20.4451C602.133 20.1137 601.996 19.7004 601.841 19.2053C601.685 18.7102 601.496 18.0786 601.274 17.3107H601.492C601.274 18.0867 601.085 18.7263 600.925 19.2296C600.766 19.7328 600.633 20.138 600.528 20.4451L598.667 25.8047H597.442ZM599.091 23.2826V22.2761H603.729V23.2826H599.091ZM606.785 25.8047V16.7711H608.143L611.817 22.549C611.914 22.6985 612.031 22.8905 612.169 23.1249C612.306 23.3593 612.455 23.6241 612.615 23.9191C612.774 24.2142 612.931 24.5295 613.084 24.8649H612.921C612.884 24.5173 612.858 24.1849 612.842 23.8676C612.826 23.5503 612.816 23.2583 612.812 22.9915C612.808 22.7248 612.806 22.4984 612.806 22.3125V16.7711H613.957V25.8047H612.587L609.313 20.6634C609.164 20.4249 609.013 20.1794 608.862 19.9268C608.71 19.6742 608.537 19.3751 608.343 19.0295C608.149 18.6839 607.909 18.2565 607.622 17.7472H607.834C607.854 18.1958 607.872 18.6101 607.889 18.9901C607.905 19.37 607.918 19.7014 607.928 19.9844C607.938 20.2673 607.943 20.4896 607.943 20.6513V25.8047H606.785ZM623.288 25.9259C622.516 25.9259 621.828 25.739 621.224 25.3651C620.619 24.9913 620.145 24.4577 619.799 23.7645C619.453 23.0714 619.281 22.2478 619.281 21.2939C619.281 20.336 619.453 19.5105 619.799 18.8173C620.145 18.1241 620.619 17.5896 621.224 17.2137C621.828 16.8378 622.516 16.6498 623.288 16.6498C623.745 16.6498 624.176 16.7165 624.583 16.8499C624.989 16.9833 625.354 17.1783 625.677 17.435C626 17.6916 626.27 18.0028 626.486 18.3686C626.703 18.7344 626.851 19.1497 626.932 19.6145H625.78C625.715 19.3033 625.605 19.0305 625.45 18.7961C625.294 18.5616 625.104 18.3636 624.88 18.2019C624.655 18.0402 624.408 17.919 624.137 17.8381C623.866 17.7573 623.583 17.7169 623.288 17.7169C622.747 17.7169 622.257 17.8543 621.821 18.1292C621.384 18.404 621.039 18.8072 620.784 19.3387C620.53 19.8702 620.402 20.5219 620.402 21.2939C620.402 22.0619 620.531 22.7116 620.787 23.2431C621.044 23.7747 621.39 24.1768 621.827 24.4496C622.264 24.7225 622.751 24.8589 623.288 24.8589C623.583 24.8589 623.866 24.8175 624.137 24.7346C624.408 24.6517 624.655 24.5305 624.88 24.3708C625.104 24.2112 625.294 24.0131 625.45 23.7767C625.605 23.5402 625.715 23.2684 625.78 22.9612H626.932C626.855 23.422 626.709 23.8343 626.492 24.198C626.276 24.5618 626.006 24.873 625.683 25.1317C625.36 25.3904 624.995 25.5874 624.589 25.7228C624.182 25.8582 623.749 25.9259 623.288 25.9259ZM627.684 25.8047L630.964 16.7711H632.297L635.62 25.8047H634.407L632.491 20.4451C632.374 20.1137 632.238 19.7004 632.082 19.2053C631.927 18.7102 631.738 18.0786 631.515 17.3107H631.734C631.515 18.0867 631.326 18.7263 631.167 19.2296C631.007 19.7328 630.875 20.138 630.77 20.4451L628.908 25.8047H627.684ZM629.333 23.2826V22.2761H633.971V23.2826H629.333ZM637.026 25.8047V16.7711H638.663L640.889 22.4701C640.941 22.6035 641.001 22.7702 641.067 22.9703C641.134 23.1704 641.205 23.3876 641.28 23.6221C641.354 23.8565 641.426 24.0899 641.495 24.3223C641.564 24.5547 641.624 24.77 641.677 24.968H641.422C641.479 24.7821 641.541 24.5749 641.61 24.3466C641.679 24.1182 641.75 23.8858 641.825 23.6494C641.9 23.4129 641.972 23.1916 642.04 22.9855C642.109 22.7793 642.17 22.6076 642.222 22.4701L644.417 16.7711H646.06V25.8047H644.926V20.6452C644.926 20.4593 644.927 20.2471 644.929 20.0086C644.931 19.7702 644.935 19.5196 644.942 19.2568C644.948 18.9941 644.954 18.7273 644.96 18.4565C644.966 18.1857 644.971 17.923 644.975 17.6684H645.072C644.987 17.9473 644.897 18.2312 644.802 18.5202C644.707 18.8092 644.614 19.0881 644.523 19.3569C644.432 19.6257 644.346 19.8712 644.266 20.0935C644.185 20.3158 644.116 20.4997 644.059 20.6452L642.04 25.8047H641.04L638.991 20.6452C638.934 20.5038 638.868 20.3249 638.791 20.1087C638.714 19.8924 638.63 19.6519 638.539 19.3872C638.448 19.1224 638.354 18.8436 638.257 18.5505C638.16 18.2575 638.061 17.9634 637.96 17.6684H638.069C638.077 17.8947 638.084 18.1393 638.091 18.402C638.097 18.6647 638.102 18.9305 638.106 19.1992C638.11 19.468 638.114 19.7267 638.118 19.9753C638.122 20.2239 638.124 20.4472 638.124 20.6452V25.8047H637.026ZM648.243 25.8047V16.7711H651.335C652.038 16.7711 652.617 16.8994 653.072 17.1561C653.526 17.4127 653.864 17.7573 654.084 18.1898C654.305 18.6223 654.415 19.1073 654.415 19.6449C654.415 20.1824 654.305 20.6695 654.084 21.106C653.864 21.5425 653.527 21.8901 653.075 22.1488C652.622 22.4075 652.044 22.5368 651.341 22.5368H649.152V21.5243H651.286C651.763 21.5243 652.147 21.4425 652.438 21.2788C652.729 21.1151 652.94 20.8908 653.072 20.6058C653.203 20.3209 653.269 20.0005 653.269 19.6449C653.269 19.2892 653.203 18.9709 653.072 18.69C652.94 18.4091 652.728 18.1878 652.435 18.0261C652.142 17.8644 651.755 17.7836 651.274 17.7836H649.395V25.8047H648.243ZM654.481 25.8047L657.761 16.7711H659.095L662.418 25.8047H661.205L659.289 20.4451C659.172 20.1137 659.036 19.7004 658.88 19.2053C658.724 18.7102 658.535 18.0786 658.313 17.3107H658.531C658.313 18.0867 658.124 18.7263 657.964 19.2296C657.805 19.7328 657.672 20.138 657.567 20.4451L655.706 25.8047H654.481ZM656.13 23.2826V22.2761H660.769V23.2826H656.13ZM664.976 16.7711V25.8047H663.824V16.7711H664.976ZM670.851 25.9259C670.047 25.9259 669.341 25.738 668.735 25.3621C668.129 24.9862 667.656 24.4517 667.316 23.7585C666.977 23.0653 666.807 22.2438 666.807 21.2939C666.807 20.336 666.977 19.5105 667.316 18.8173C667.656 18.1241 668.125 17.5896 668.723 17.2137C669.321 16.8378 670.006 16.6498 670.778 16.6498C671.255 16.6498 671.701 16.7206 672.115 16.862C672.529 17.0035 672.9 17.2056 673.228 17.4683C673.555 17.731 673.827 18.0433 674.043 18.405C674.259 18.7668 674.408 19.1659 674.489 19.6024H673.3C673.207 19.3114 673.084 19.0507 672.931 18.8203C672.777 18.5899 672.594 18.3919 672.382 18.2262C672.17 18.0604 671.93 17.9341 671.663 17.8472C671.397 17.7603 671.104 17.7169 670.784 17.7169C670.255 17.7169 669.774 17.8533 669.341 18.1261C668.909 18.3989 668.565 18.8011 668.311 19.3326C668.056 19.8641 667.929 20.5179 667.929 21.2939C667.929 22.0619 668.057 22.7106 668.314 23.2401C668.57 23.7696 668.919 24.1718 669.36 24.4466C669.8 24.7215 670.297 24.8589 670.851 24.8589C671.36 24.8589 671.809 24.7508 672.197 24.5345C672.585 24.3183 672.887 24.0111 673.103 23.613C673.32 23.2149 673.428 22.745 673.428 22.2034L673.773 22.2701H671.087V21.2636H674.555V22.2519C674.555 22.9996 674.396 23.6483 674.076 24.198C673.757 24.7477 673.32 25.1731 672.764 25.4743C672.208 25.7754 671.57 25.9259 670.851 25.9259ZM676.423 25.8047V16.7711H677.781L681.455 22.549C681.552 22.6985 681.669 22.8905 681.807 23.1249C681.944 23.3593 682.092 23.6241 682.252 23.9191C682.412 24.2142 682.568 24.5295 682.722 24.8649H682.558C682.522 24.5173 682.496 24.1849 682.479 23.8676C682.463 23.5503 682.453 23.2583 682.449 22.9915C682.445 22.7248 682.443 22.4984 682.443 22.3125V16.7711H683.595V25.8047H682.225L678.951 20.6634C678.801 20.4249 678.651 20.1794 678.499 19.9268C678.348 19.6742 678.175 19.3751 677.981 19.0295C677.787 18.6839 677.546 18.2565 677.259 17.7472H677.472C677.492 18.1958 677.51 18.6101 677.526 18.9901C677.542 19.37 677.555 19.7014 677.566 19.9844C677.576 20.2673 677.581 20.4896 677.581 20.6513V25.8047H676.423Z" fill="#444748"/>
<path d="M1 1H981H1Z" fill="black"/>
<path d="M1 1H981H1" stroke="#E2E2E2" stroke-width="1.23333" stroke-dasharray="4.93"/>
<path d="M1 75.5H981H1Z" fill="black"/>
<path d="M1 75.5H981H1" stroke="#E2E2E2" stroke-width="1.23333" stroke-dasharray="4.93"/>
<path d="M1 150H981H1Z" fill="black"/>
<path d="M1 150H981H1" stroke="#E2E2E2" stroke-width="1.23333" stroke-dasharray="4.93"/>
<path d="M1 224.5H981H1Z" fill="black"/>
<path d="M1 224.5H981H1" stroke="#E2E2E2" stroke-width="1.23333" stroke-dasharray="4.93"/>
<path d="M1 299H981H1Z" fill="black"/>
<path d="M1 299H981H1" stroke="#C4C7C7" stroke-width="1.23333"/>
<path d="M1 224.499L123.5 218.291L246 226.983L368.5 222.016L491 224.499L613.5 218.291L736 230.708L858.5 222.016L981 224.499" stroke="#1E1E1E" stroke-width="2.46667"/>
<path d="M1 224.499L123.5 218.291L246 226.983L368.5 149.999L491 50.666L613.5 75.4993L736 230.708L858.5 222.016L981 224.499" stroke="#747878" stroke-width="2.46667" stroke-dasharray="7.4"/>
</g>
<path d="M9.75195 12V11.3311L12.1689 8.70898C12.4391 8.41602 12.6637 8.15885 12.8428 7.9375C13.0218 7.71615 13.1569 7.50537 13.248 7.30518C13.3392 7.10498 13.3848 6.89258 13.3848 6.66797C13.3848 6.41406 13.3245 6.19434 13.2041 6.00879C13.0837 5.82324 12.9209 5.68083 12.7158 5.58154C12.5107 5.48226 12.278 5.43262 12.0176 5.43262C11.7409 5.43262 11.5008 5.48877 11.2974 5.60107C11.0939 5.71338 10.9368 5.87126 10.8262 6.07471C10.7155 6.27816 10.6602 6.5166 10.6602 6.79004H9.77148C9.77148 6.36035 9.87077 5.98275 10.0693 5.65723C10.2679 5.33171 10.5381 5.07861 10.8799 4.89795C11.2217 4.71729 11.609 4.62695 12.042 4.62695C12.4749 4.62695 12.8582 4.71729 13.1919 4.89795C13.5256 5.07861 13.7876 5.32194 13.978 5.62793C14.1685 5.93392 14.2637 6.27734 14.2637 6.6582C14.2637 6.92188 14.2165 7.17822 14.1221 7.42725C14.0277 7.67627 13.8617 7.95866 13.624 8.27441C13.3864 8.59017 13.0527 8.97591 12.623 9.43164L11.0312 11.126V11.1846H14.3857V12H9.75195ZM18.2529 12.0977C17.7126 12.0977 17.252 11.9512 16.8711 11.6582C16.4902 11.3652 16.1989 10.9412 15.9971 10.3862C15.7952 9.83122 15.6943 9.1582 15.6943 8.36719C15.6943 7.57943 15.7961 6.90723 15.9995 6.35059C16.203 5.79395 16.4951 5.36751 16.876 5.07129C17.2568 4.77507 17.7158 4.62695 18.2529 4.62695C18.79 4.62695 19.2498 4.77507 19.6323 5.07129C20.0148 5.36751 20.307 5.79395 20.5088 6.35059C20.7106 6.90723 20.8115 7.57943 20.8115 8.36719C20.8115 9.15495 20.7114 9.82715 20.5112 10.3838C20.311 10.9404 20.0205 11.3652 19.6396 11.6582C19.2588 11.9512 18.7965 12.0977 18.2529 12.0977ZM18.2529 11.2871C18.6077 11.2871 18.9089 11.1715 19.1562 10.9404C19.4036 10.7093 19.5924 10.3765 19.7227 9.94189C19.8529 9.50732 19.918 8.98242 19.918 8.36719C19.918 7.7487 19.8529 7.22054 19.7227 6.78271C19.5924 6.34489 19.4036 6.01042 19.1562 5.7793C18.9089 5.54818 18.6077 5.43262 18.2529 5.43262C17.8981 5.43262 17.597 5.54899 17.3496 5.78174C17.1022 6.01449 16.9134 6.34896 16.7832 6.78516C16.653 7.22135 16.5879 7.7487 16.5879 8.36719C16.5879 8.98242 16.653 9.50732 16.7832 9.94189C16.9134 10.3765 17.1022 10.7093 17.3496 10.9404C17.597 11.1715 17.8981 11.2871 18.2529 11.2871ZM24.5615 12.0977C24.0212 12.0977 23.5605 11.9512 23.1797 11.6582C22.7988 11.3652 22.5075 10.9412 22.3057 10.3862C22.1038 9.83122 22.0029 9.1582 22.0029 8.36719C22.0029 7.57943 22.1047 6.90723 22.3081 6.35059C22.5116 5.79395 22.8037 5.36751 23.1846 5.07129C23.5654 4.77507 24.0244 4.62695 24.5615 4.62695C25.0986 4.62695 25.5584 4.77507 25.9409 5.07129C26.3234 5.36751 26.6156 5.79395 26.8174 6.35059C27.0192 6.90723 27.1201 7.57943 27.1201 8.36719C27.1201 9.15495 27.02 9.82715 26.8198 10.3838C26.6196 10.9404 26.3291 11.3652 25.9482 11.6582C25.5674 11.9512 25.1051 12.0977 24.5615 12.0977ZM24.5615 11.2871C24.9163 11.2871 25.2174 11.1715 25.4648 10.9404C25.7122 10.7093 25.901 10.3765 26.0312 9.94189C26.1615 9.50732 26.2266 8.98242 26.2266 8.36719C26.2266 7.7487 26.1615 7.22054 26.0312 6.78271C25.901 6.34489 25.7122 6.01042 25.4648 5.7793C25.2174 5.54818 24.9163 5.43262 24.5615 5.43262C24.2067 5.43262 23.9056 5.54899 23.6582 5.78174C23.4108 6.01449 23.222 6.34896 23.0918 6.78516C22.9616 7.22135 22.8965 7.7487 22.8965 8.36719C22.8965 8.98242 22.9616 9.50732 23.0918 9.94189C23.222 10.3765 23.4108 10.7093 23.6582 10.9404C23.9056 11.1715 24.2067 11.2871 24.5615 11.2871ZM30.8701 12.0977C30.3298 12.0977 29.8691 11.9512 29.4883 11.6582C29.1074 11.3652 28.8161 10.9412 28.6143 10.3862C28.4124 9.83122 28.3115 9.1582 28.3115 8.36719C28.3115 7.57943 28.4132 6.90723 28.6167 6.35059C28.8201 5.79395 29.1123 5.36751 29.4932 5.07129C29.874 4.77507 30.333 4.62695 30.8701 4.62695C31.4072 4.62695 31.867 4.77507 32.2495 5.07129C32.632 5.36751 32.9242 5.79395 33.126 6.35059C33.3278 6.90723 33.4287 7.57943 33.4287 8.36719C33.4287 9.15495 33.3286 9.82715 33.1284 10.3838C32.9282 10.9404 32.6377 11.3652 32.2568 11.6582C31.876 11.9512 31.4137 12.0977 30.8701 12.0977ZM30.8701 11.2871C31.2249 11.2871 31.526 11.1715 31.7734 10.9404C32.0208 10.7093 32.2096 10.3765 32.3398 9.94189C32.4701 9.50732 32.5352 8.98242 32.5352 8.36719C32.5352 7.7487 32.4701 7.22054 32.3398 6.78271C32.2096 6.34489 32.0208 6.01042 31.7734 5.7793C31.526 5.54818 31.2249 5.43262 30.8701 5.43262C30.5153 5.43262 30.2142 5.54899 29.9668 5.78174C29.7194 6.01449 29.5306 6.34896 29.4004 6.78516C29.2702 7.22135 29.2051 7.7487 29.2051 8.36719C29.2051 8.98242 29.2702 9.50732 29.4004 9.94189C29.5306 10.3765 29.7194 10.7093 29.9668 10.9404C30.2142 11.1715 30.5153 11.2871 30.8701 11.2871Z" fill="#5E5E5E"/>
<path d="M12.1885 67.4746V74.75H11.2754V68.334H11.2266L9.46875 69.6377V68.6416L11.0508 67.4746H12.1885ZM15.9775 74.8477C15.5511 74.8477 15.1686 74.7638 14.8301 74.5962C14.4915 74.4285 14.2214 74.1991 14.0195 73.9077C13.8177 73.6164 13.7087 73.2852 13.6924 72.9141H14.5908C14.6104 73.1289 14.6836 73.321 14.8105 73.4902C14.9375 73.6595 15.1027 73.7922 15.3062 73.8882C15.5096 73.9842 15.7334 74.0322 15.9775 74.0322C16.2705 74.0322 16.5317 73.9639 16.7612 73.8271C16.9907 73.6904 17.1706 73.5016 17.3008 73.2607C17.431 73.0199 17.4961 72.7464 17.4961 72.4404C17.4961 72.1279 17.4277 71.848 17.291 71.6006C17.1543 71.3532 16.9679 71.1587 16.7319 71.0171C16.4959 70.8755 16.2249 70.8047 15.9189 70.8047C15.6943 70.8047 15.4665 70.8405 15.2354 70.9121C15.0042 70.9837 14.8171 71.0749 14.6738 71.1855L13.8047 71.0781L14.2344 67.4746H18.0625V68.29H15.0156L14.7666 70.4141H14.8057C14.9554 70.2904 15.1442 70.1886 15.3721 70.1089C15.5999 70.0291 15.8392 69.9893 16.0898 69.9893C16.4219 69.9893 16.7287 70.0495 17.0103 70.1699C17.2918 70.2904 17.5368 70.4604 17.7451 70.6802C17.9535 70.8999 18.1154 71.1579 18.231 71.4541C18.3465 71.7503 18.4043 72.0742 18.4043 72.4258C18.4043 72.8913 18.2993 73.3063 18.0894 73.6709C17.8794 74.0355 17.5921 74.3228 17.2275 74.5327C16.863 74.7427 16.4463 74.8477 15.9775 74.8477ZM22.1543 74.8477C21.6139 74.8477 21.1533 74.7012 20.7725 74.4082C20.3916 74.1152 20.1003 73.6912 19.8984 73.1362C19.6966 72.5812 19.5957 71.9082 19.5957 71.1172C19.5957 70.3294 19.6974 69.6572 19.9009 69.1006C20.1043 68.5439 20.3965 68.1175 20.7773 67.8213C21.1582 67.5251 21.6172 67.377 22.1543 67.377C22.6914 67.377 23.1512 67.5251 23.5337 67.8213C23.9162 68.1175 24.2083 68.5439 24.4102 69.1006C24.612 69.6572 24.7129 70.3294 24.7129 71.1172C24.7129 71.9049 24.6128 72.5771 24.4126 73.1338C24.2124 73.6904 23.9219 74.1152 23.541 74.4082C23.1602 74.7012 22.6979 74.8477 22.1543 74.8477ZM22.1543 74.0371C22.5091 74.0371 22.8102 73.9215 23.0576 73.6904C23.305 73.4593 23.4938 73.1265 23.624 72.6919C23.7542 72.2573 23.8193 71.7324 23.8193 71.1172C23.8193 70.4987 23.7542 69.9705 23.624 69.5327C23.4938 69.0949 23.305 68.7604 23.0576 68.5293C22.8102 68.2982 22.5091 68.1826 22.1543 68.1826C21.7995 68.1826 21.4984 68.299 21.251 68.5317C21.0036 68.7645 20.8148 69.099 20.6846 69.5352C20.5544 69.9714 20.4893 70.4987 20.4893 71.1172C20.4893 71.7324 20.5544 72.2573 20.6846 72.6919C20.8148 73.1265 21.0036 73.4593 21.251 73.6904C21.4984 73.9215 21.7995 74.0371 22.1543 74.0371ZM28.4629 74.8477C27.9225 74.8477 27.4619 74.7012 27.0811 74.4082C26.7002 74.1152 26.4089 73.6912 26.207 73.1362C26.0052 72.5812 25.9043 71.9082 25.9043 71.1172C25.9043 70.3294 26.006 69.6572 26.2095 69.1006C26.4129 68.5439 26.7051 68.1175 27.0859 67.8213C27.4668 67.5251 27.9258 67.377 28.4629 67.377C29 67.377 29.4598 67.5251 29.8423 67.8213C30.2248 68.1175 30.5169 68.5439 30.7188 69.1006C30.9206 69.6572 31.0215 70.3294 31.0215 71.1172C31.0215 71.9049 30.9214 72.5771 30.7212 73.1338C30.521 73.6904 30.2305 74.1152 29.8496 74.4082C29.4688 74.7012 29.0065 74.8477 28.4629 74.8477ZM28.4629 74.0371C28.8177 74.0371 29.1188 73.9215 29.3662 73.6904C29.6136 73.4593 29.8024 73.1265 29.9326 72.6919C30.0628 72.2573 30.1279 71.7324 30.1279 71.1172C30.1279 70.4987 30.0628 69.9705 29.9326 69.5327C29.8024 69.0949 29.6136 68.7604 29.3662 68.5293C29.1188 68.2982 28.8177 68.1826 28.4629 68.1826C28.1081 68.1826 27.807 68.299 27.5596 68.5317C27.3122 68.7645 27.1234 69.099 26.9932 69.5352C26.863 69.9714 26.7979 70.4987 26.7979 71.1172C26.7979 71.7324 26.863 72.2573 26.9932 72.6919C27.1234 73.1265 27.3122 73.4593 27.5596 73.6904C27.807 73.9215 28.1081 74.0371 28.4629 74.0371Z" fill="#5E5E5E"/>
<path d="M12.1885 130.225V137.5H11.2754V131.084H11.2266L9.46875 132.388V131.392L11.0508 130.225H12.1885ZM16.2217 137.598C15.6813 137.598 15.2207 137.451 14.8398 137.158C14.459 136.865 14.1676 136.441 13.9658 135.886C13.764 135.331 13.6631 134.658 13.6631 133.867C13.6631 133.079 13.7648 132.407 13.9683 131.851C14.1717 131.294 14.4639 130.868 14.8447 130.571C15.2256 130.275 15.6846 130.127 16.2217 130.127C16.7588 130.127 17.2186 130.275 17.6011 130.571C17.9836 130.868 18.2757 131.294 18.4775 131.851C18.6794 132.407 18.7803 133.079 18.7803 133.867C18.7803 134.655 18.6802 135.327 18.48 135.884C18.2798 136.44 17.9893 136.865 17.6084 137.158C17.2275 137.451 16.7653 137.598 16.2217 137.598ZM16.2217 136.787C16.5765 136.787 16.8776 136.672 17.125 136.44C17.3724 136.209 17.5612 135.876 17.6914 135.442C17.8216 135.007 17.8867 134.482 17.8867 133.867C17.8867 133.249 17.8216 132.721 17.6914 132.283C17.5612 131.845 17.3724 131.51 17.125 131.279C16.8776 131.048 16.5765 130.933 16.2217 130.933C15.8669 130.933 15.5658 131.049 15.3184 131.282C15.071 131.514 14.8822 131.849 14.752 132.285C14.6217 132.721 14.5566 133.249 14.5566 133.867C14.5566 134.482 14.6217 135.007 14.752 135.442C14.8822 135.876 15.071 136.209 15.3184 136.44C15.5658 136.672 15.8669 136.787 16.2217 136.787ZM22.5303 137.598C21.9899 137.598 21.5293 137.451 21.1484 137.158C20.7676 136.865 20.4762 136.441 20.2744 135.886C20.0726 135.331 19.9717 134.658 19.9717 133.867C19.9717 133.079 20.0734 132.407 20.2769 131.851C20.4803 131.294 20.7725 130.868 21.1533 130.571C21.5342 130.275 21.9932 130.127 22.5303 130.127C23.0674 130.127 23.5272 130.275 23.9097 130.571C24.2922 130.868 24.5843 131.294 24.7861 131.851C24.988 132.407 25.0889 133.079 25.0889 133.867C25.0889 134.655 24.9888 135.327 24.7886 135.884C24.5884 136.44 24.2979 136.865 23.917 137.158C23.5361 137.451 23.0739 137.598 22.5303 137.598ZM22.5303 136.787C22.8851 136.787 23.1862 136.672 23.4336 136.44C23.681 136.209 23.8698 135.876 24 135.442C24.1302 135.007 24.1953 134.482 24.1953 133.867C24.1953 133.249 24.1302 132.721 24 132.283C23.8698 131.845 23.681 131.51 23.4336 131.279C23.1862 131.048 22.8851 130.933 22.5303 130.933C22.1755 130.933 21.8743 131.049 21.627 131.282C21.3796 131.514 21.1908 131.849 21.0605 132.285C20.9303 132.721 20.8652 133.249 20.8652 133.867C20.8652 134.482 20.9303 135.007 21.0605 135.442C21.1908 135.876 21.3796 136.209 21.627 136.44C21.8743 136.672 22.1755 136.787 22.5303 136.787ZM28.8389 137.598C28.2985 137.598 27.8379 137.451 27.457 137.158C27.0762 136.865 26.7848 136.441 26.583 135.886C26.3812 135.331 26.2803 134.658 26.2803 133.867C26.2803 133.079 26.382 132.407 26.5854 131.851C26.7889 131.294 27.0811 130.868 27.4619 130.571C27.8428 130.275 28.3018 130.127 28.8389 130.127C29.376 130.127 29.8358 130.275 30.2183 130.571C30.6007 130.868 30.8929 131.294 31.0947 131.851C31.2965 132.407 31.3975 133.079 31.3975 133.867C31.3975 134.655 31.2974 135.327 31.0972 135.884C30.897 136.44 30.6064 136.865 30.2256 137.158C29.8447 137.451 29.3825 137.598 28.8389 137.598ZM28.8389 136.787C29.1937 136.787 29.4948 136.672 29.7422 136.44C29.9896 136.209 30.1784 135.876 30.3086 135.442C30.4388 135.007 30.5039 134.482 30.5039 133.867C30.5039 133.249 30.4388 132.721 30.3086 132.283C30.1784 131.845 29.9896 131.51 29.7422 131.279C29.4948 131.048 29.1937 130.933 28.8389 130.933C28.484 130.933 28.1829 131.049 27.9355 131.282C27.6882 131.514 27.4993 131.849 27.3691 132.285C27.2389 132.721 27.1738 133.249 27.1738 133.867C27.1738 134.482 27.2389 135.007 27.3691 135.442C27.4993 135.876 27.6882 136.209 27.9355 136.44C28.1829 136.672 28.484 136.787 28.8389 136.787Z" fill="#5E5E5E"/>
<path d="M11.9102 200.348C11.4837 200.348 11.1012 200.264 10.7627 200.096C10.4242 199.929 10.154 199.699 9.95215 199.408C9.75033 199.116 9.64128 198.785 9.625 198.414H10.5234C10.543 198.629 10.6162 198.821 10.7432 198.99C10.8701 199.16 11.0353 199.292 11.2388 199.388C11.4422 199.484 11.666 199.532 11.9102 199.532C12.2031 199.532 12.4644 199.464 12.6938 199.327C12.9233 199.19 13.1032 199.002 13.2334 198.761C13.3636 198.52 13.4287 198.246 13.4287 197.94C13.4287 197.628 13.3604 197.348 13.2236 197.101C13.0869 196.853 12.9006 196.659 12.6646 196.517C12.4285 196.375 12.1576 196.305 11.8516 196.305C11.627 196.305 11.3991 196.34 11.168 196.412C10.9368 196.484 10.7497 196.575 10.6064 196.686L9.7373 196.578L10.167 192.975H13.9951V193.79H10.9482L10.6992 195.914H10.7383C10.888 195.79 11.0768 195.689 11.3047 195.609C11.5326 195.529 11.7718 195.489 12.0225 195.489C12.3545 195.489 12.6613 195.549 12.9429 195.67C13.2244 195.79 13.4694 195.96 13.6777 196.18C13.8861 196.4 14.048 196.658 14.1636 196.954C14.2791 197.25 14.3369 197.574 14.3369 197.926C14.3369 198.391 14.2319 198.806 14.022 199.171C13.812 199.535 13.5247 199.823 13.1602 200.033C12.7956 200.243 12.3789 200.348 11.9102 200.348ZM18.0869 200.348C17.5465 200.348 17.0859 200.201 16.7051 199.908C16.3242 199.615 16.0329 199.191 15.8311 198.636C15.6292 198.081 15.5283 197.408 15.5283 196.617C15.5283 195.829 15.63 195.157 15.8335 194.601C16.0369 194.044 16.3291 193.618 16.71 193.321C17.0908 193.025 17.5498 192.877 18.0869 192.877C18.624 192.877 19.0838 193.025 19.4663 193.321C19.8488 193.618 20.141 194.044 20.3428 194.601C20.5446 195.157 20.6455 195.829 20.6455 196.617C20.6455 197.405 20.5454 198.077 20.3452 198.634C20.145 199.19 19.8545 199.615 19.4736 199.908C19.0928 200.201 18.6305 200.348 18.0869 200.348ZM18.0869 199.537C18.4417 199.537 18.7428 199.422 18.9902 199.19C19.2376 198.959 19.4264 198.626 19.5566 198.192C19.6868 197.757 19.752 197.232 19.752 196.617C19.752 195.999 19.6868 195.471 19.5566 195.033C19.4264 194.595 19.2376 194.26 18.9902 194.029C18.7428 193.798 18.4417 193.683 18.0869 193.683C17.7321 193.683 17.431 193.799 17.1836 194.032C16.9362 194.264 16.7474 194.599 16.6172 195.035C16.487 195.471 16.4219 195.999 16.4219 196.617C16.4219 197.232 16.487 197.757 16.6172 198.192C16.7474 198.626 16.9362 198.959 17.1836 199.19C17.431 199.422 17.7321 199.537 18.0869 199.537ZM24.3955 200.348C23.8551 200.348 23.3945 200.201 23.0137 199.908C22.6328 199.615 22.3415 199.191 22.1396 198.636C21.9378 198.081 21.8369 197.408 21.8369 196.617C21.8369 195.829 21.9386 195.157 22.1421 194.601C22.3455 194.044 22.6377 193.618 23.0186 193.321C23.3994 193.025 23.8584 192.877 24.3955 192.877C24.9326 192.877 25.3924 193.025 25.7749 193.321C26.1574 193.618 26.4495 194.044 26.6514 194.601C26.8532 195.157 26.9541 195.829 26.9541 196.617C26.9541 197.405 26.854 198.077 26.6538 198.634C26.4536 199.19 26.1631 199.615 25.7822 199.908C25.4014 200.201 24.9391 200.348 24.3955 200.348ZM24.3955 199.537C24.7503 199.537 25.0514 199.422 25.2988 199.19C25.5462 198.959 25.735 198.626 25.8652 198.192C25.9954 197.757 26.0605 197.232 26.0605 196.617C26.0605 195.999 25.9954 195.471 25.8652 195.033C25.735 194.595 25.5462 194.26 25.2988 194.029C25.0514 193.798 24.7503 193.683 24.3955 193.683C24.0407 193.683 23.7396 193.799 23.4922 194.032C23.2448 194.264 23.056 194.599 22.9258 195.035C22.7956 195.471 22.7305 195.999 22.7305 196.617C22.7305 197.232 22.7956 197.757 22.9258 198.192C23.056 198.626 23.2448 198.959 23.4922 199.19C23.7396 199.422 24.0407 199.537 24.3955 199.537Z" fill="#5E5E5E"/>
<path d="M12.1543 263.098C11.6139 263.098 11.1533 262.951 10.7725 262.658C10.3916 262.365 10.1003 261.941 9.89844 261.386C9.69661 260.831 9.5957 260.158 9.5957 259.367C9.5957 258.579 9.69743 257.907 9.90088 257.351C10.1043 256.794 10.3965 256.368 10.7773 256.071C11.1582 255.775 11.6172 255.627 12.1543 255.627C12.6914 255.627 13.1512 255.775 13.5337 256.071C13.9162 256.368 14.2083 256.794 14.4102 257.351C14.612 257.907 14.7129 258.579 14.7129 259.367C14.7129 260.155 14.6128 260.827 14.4126 261.384C14.2124 261.94 13.9219 262.365 13.541 262.658C13.1602 262.951 12.6979 263.098 12.1543 263.098ZM12.1543 262.287C12.5091 262.287 12.8102 262.172 13.0576 261.94C13.305 261.709 13.4938 261.376 13.624 260.942C13.7542 260.507 13.8193 259.982 13.8193 259.367C13.8193 258.749 13.7542 258.221 13.624 257.783C13.4938 257.345 13.305 257.01 13.0576 256.779C12.8102 256.548 12.5091 256.433 12.1543 256.433C11.7995 256.433 11.4984 256.549 11.251 256.782C11.0036 257.014 10.8148 257.349 10.6846 257.785C10.5544 258.221 10.4893 258.749 10.4893 259.367C10.4893 259.982 10.5544 260.507 10.6846 260.942C10.8148 261.376 11.0036 261.709 11.251 261.94C11.4984 262.172 11.7995 262.287 12.1543 262.287Z" fill="#5E5E5E"/>
<path d="M51.2363 287L49.2539 279.725H50.2012L51.3535 284.188C51.4154 284.425 51.474 284.667 51.5293 284.913C51.5846 285.158 51.6383 285.407 51.6904 285.66C51.7425 285.912 51.7913 286.172 51.8369 286.438H51.7246C51.7734 286.172 51.8239 285.912 51.876 285.66C51.9281 285.407 51.9834 285.158 52.042 284.913C52.1006 284.667 52.1608 284.425 52.2227 284.188L53.3994 279.725H54.4541L55.6211 284.188C55.6862 284.425 55.7472 284.667 55.8042 284.913C55.8612 285.158 55.9173 285.407 55.9727 285.66C56.028 285.912 56.0801 286.172 56.1289 286.438H56.002C56.0508 286.172 56.1012 285.912 56.1533 285.66C56.2054 285.407 56.2607 285.158 56.3193 284.913C56.3779 284.667 56.4365 284.425 56.4951 284.188L57.6426 279.725H58.5996L56.6074 287H55.5283L54.2783 282.391C54.1969 282.091 54.1188 281.765 54.0439 281.412C53.9691 281.058 53.8958 280.651 53.8242 280.188H54.0195C53.9479 280.625 53.8779 281.014 53.8096 281.358C53.7412 281.701 53.6598 282.046 53.5654 282.391L52.3203 287H51.2363ZM61.4121 287.117C60.8848 287.117 60.4299 287 60.0474 286.766C59.6649 286.531 59.3703 286.204 59.1636 285.784C58.9569 285.364 58.8535 284.874 58.8535 284.314C58.8535 283.755 58.9544 283.261 59.1562 282.835C59.3581 282.409 59.6437 282.075 60.0132 281.834C60.3826 281.593 60.8148 281.473 61.3096 281.473C61.5993 281.473 61.8849 281.521 62.1665 281.617C62.4481 281.713 62.7036 281.867 62.9331 282.081C63.1626 282.294 63.3457 282.575 63.4824 282.923C63.6191 283.271 63.6875 283.698 63.6875 284.202V284.568H59.4492V283.826H63.2139L62.8037 284.1C62.8037 283.742 62.7476 283.423 62.6353 283.145C62.5229 282.867 62.3561 282.649 62.1348 282.491C61.9134 282.333 61.6383 282.254 61.3096 282.254C60.9808 282.254 60.6992 282.334 60.4648 282.496C60.2305 282.657 60.0514 282.867 59.9277 283.125C59.804 283.384 59.7422 283.662 59.7422 283.958V284.451C59.7422 284.855 59.8122 285.197 59.9521 285.479C60.0921 285.761 60.2882 285.974 60.5405 286.119C60.7928 286.264 61.085 286.336 61.417 286.336C61.6318 286.336 61.8271 286.305 62.0029 286.243C62.1787 286.181 62.3301 286.088 62.457 285.962C62.584 285.837 62.6816 285.682 62.75 285.496L63.5996 285.73C63.515 286.004 63.3717 286.245 63.1699 286.453C62.9681 286.661 62.7183 286.824 62.4204 286.941C62.1226 287.059 61.7865 287.117 61.4121 287.117ZM67.2422 287.117C66.7148 287.117 66.2599 287 65.8774 286.766C65.495 286.531 65.2004 286.204 64.9937 285.784C64.7869 285.364 64.6836 284.874 64.6836 284.314C64.6836 283.755 64.7845 283.261 64.9863 282.835C65.1882 282.409 65.4738 282.075 65.8433 281.834C66.2127 281.593 66.6449 281.473 67.1396 281.473C67.4294 281.473 67.715 281.521 67.9966 281.617C68.2782 281.713 68.5337 281.867 68.7632 282.081C68.9927 282.294 69.1758 282.575 69.3125 282.923C69.4492 283.271 69.5176 283.698 69.5176 284.202V284.568H65.2793V283.826H69.0439L68.6338 284.1C68.6338 283.742 68.5776 283.423 68.4653 283.145C68.353 282.867 68.1862 282.649 67.9648 282.491C67.7435 282.333 67.4684 282.254 67.1396 282.254C66.8109 282.254 66.5293 282.334 66.2949 282.496C66.0605 282.657 65.8815 282.867 65.7578 283.125C65.6341 283.384 65.5723 283.662 65.5723 283.958V284.451C65.5723 284.855 65.6423 285.197 65.7822 285.479C65.9222 285.761 66.1183 285.974 66.3706 286.119C66.6229 286.264 66.915 286.336 67.2471 286.336C67.4619 286.336 67.6572 286.305 67.833 286.243C68.0088 286.181 68.1602 286.088 68.2871 285.962C68.4141 285.837 68.5117 285.682 68.5801 285.496L69.4297 285.73C69.3451 286.004 69.2018 286.245 69 286.453C68.7982 286.661 68.5483 286.824 68.2505 286.941C67.9526 287.059 67.6165 287.117 67.2422 287.117ZM71.6025 285.037V283.948H71.7637L74.0977 281.541H75.1865L72.6621 284.134H72.5645L71.6025 285.037ZM70.7773 287V279.725H71.6562V287H70.7773ZM74.2295 287L72.1396 284.329L72.7646 283.709L75.3574 287H74.2295ZM81.4951 279.725V287H80.582V280.584H80.5332L78.7754 281.888V280.892L80.3574 279.725H81.4951Z" fill="#5E5E5E"/>
<path d="M373.934 287L371.951 279.725H372.898L374.051 284.188C374.113 284.425 374.171 284.667 374.227 284.913C374.282 285.158 374.336 285.407 374.388 285.66C374.44 285.912 374.489 286.172 374.534 286.438H374.422C374.471 286.172 374.521 285.912 374.573 285.66C374.625 285.407 374.681 285.158 374.739 284.913C374.798 284.667 374.858 284.425 374.92 284.188L376.097 279.725H377.151L378.318 284.188C378.383 284.425 378.444 284.667 378.501 284.913C378.558 285.158 378.615 285.407 378.67 285.66C378.725 285.912 378.777 286.172 378.826 286.438H378.699C378.748 286.172 378.799 285.912 378.851 285.66C378.903 285.407 378.958 285.158 379.017 284.913C379.075 284.667 379.134 284.425 379.192 284.188L380.34 279.725H381.297L379.305 287H378.226L376.976 282.391C376.894 282.091 376.816 281.765 376.741 281.412C376.666 281.058 376.593 280.651 376.521 280.188H376.717C376.645 280.625 376.575 281.014 376.507 281.358C376.438 281.701 376.357 282.046 376.263 282.391L375.018 287H373.934ZM384.109 287.117C383.582 287.117 383.127 287 382.745 286.766C382.362 286.531 382.068 286.204 381.861 285.784C381.654 285.364 381.551 284.874 381.551 284.314C381.551 283.755 381.652 283.261 381.854 282.835C382.055 282.409 382.341 282.075 382.71 281.834C383.08 281.593 383.512 281.473 384.007 281.473C384.297 281.473 384.582 281.521 384.864 281.617C385.145 281.713 385.401 281.867 385.63 282.081C385.86 282.294 386.043 282.575 386.18 282.923C386.316 283.271 386.385 283.698 386.385 284.202V284.568H382.146V283.826H385.911L385.501 284.1C385.501 283.742 385.445 283.423 385.333 283.145C385.22 282.867 385.053 282.649 384.832 282.491C384.611 282.333 384.336 282.254 384.007 282.254C383.678 282.254 383.396 282.334 383.162 282.496C382.928 282.657 382.749 282.867 382.625 283.125C382.501 283.384 382.439 283.662 382.439 283.958V284.451C382.439 284.855 382.509 285.197 382.649 285.479C382.789 285.761 382.986 285.974 383.238 286.119C383.49 286.264 383.782 286.336 384.114 286.336C384.329 286.336 384.524 286.305 384.7 286.243C384.876 286.181 385.027 286.088 385.154 285.962C385.281 285.837 385.379 285.682 385.447 285.496L386.297 285.73C386.212 286.004 386.069 286.245 385.867 286.453C385.665 286.661 385.416 286.824 385.118 286.941C384.82 287.059 384.484 287.117 384.109 287.117ZM389.939 287.117C389.412 287.117 388.957 287 388.575 286.766C388.192 286.531 387.898 286.204 387.691 285.784C387.484 285.364 387.381 284.874 387.381 284.314C387.381 283.755 387.482 283.261 387.684 282.835C387.885 282.409 388.171 282.075 388.541 281.834C388.91 281.593 389.342 281.473 389.837 281.473C390.127 281.473 390.412 281.521 390.694 281.617C390.975 281.713 391.231 281.867 391.46 282.081C391.69 282.294 391.873 282.575 392.01 282.923C392.146 283.271 392.215 283.698 392.215 284.202V284.568H387.977V283.826H391.741L391.331 284.1C391.331 283.742 391.275 283.423 391.163 283.145C391.05 282.867 390.883 282.649 390.662 282.491C390.441 282.333 390.166 282.254 389.837 282.254C389.508 282.254 389.227 282.334 388.992 282.496C388.758 282.657 388.579 282.867 388.455 283.125C388.331 283.384 388.27 283.662 388.27 283.958V284.451C388.27 284.855 388.34 285.197 388.479 285.479C388.619 285.761 388.816 285.974 389.068 286.119C389.32 286.264 389.612 286.336 389.944 286.336C390.159 286.336 390.354 286.305 390.53 286.243C390.706 286.181 390.857 286.088 390.984 285.962C391.111 285.837 391.209 285.682 391.277 285.496L392.127 285.73C392.042 286.004 391.899 286.245 391.697 286.453C391.495 286.661 391.246 286.824 390.948 286.941C390.65 287.059 390.314 287.117 389.939 287.117ZM394.3 285.037V283.948H394.461L396.795 281.541H397.884L395.359 284.134H395.262L394.3 285.037ZM393.475 287V279.725H394.354V287H393.475ZM396.927 287L394.837 284.329L395.462 283.709L398.055 287H396.927ZM401.756 287V286.331L404.173 283.709C404.443 283.416 404.668 283.159 404.847 282.938C405.026 282.716 405.161 282.505 405.252 282.305C405.343 282.105 405.389 281.893 405.389 281.668C405.389 281.414 405.328 281.194 405.208 281.009C405.088 280.823 404.925 280.681 404.72 280.582C404.515 280.482 404.282 280.433 404.021 280.433C403.745 280.433 403.505 280.489 403.301 280.601C403.098 280.713 402.941 280.871 402.83 281.075C402.719 281.278 402.664 281.517 402.664 281.79H401.775C401.775 281.36 401.875 280.983 402.073 280.657C402.272 280.332 402.542 280.079 402.884 279.898C403.226 279.717 403.613 279.627 404.046 279.627C404.479 279.627 404.862 279.717 405.196 279.898C405.529 280.079 405.792 280.322 405.982 280.628C406.172 280.934 406.268 281.277 406.268 281.658C406.268 281.922 406.22 282.178 406.126 282.427C406.032 282.676 405.866 282.959 405.628 283.274C405.39 283.59 405.057 283.976 404.627 284.432L403.035 286.126V286.185H406.39V287H401.756Z" fill="#5E5E5E"/>
<path d="M698.66 287L696.678 279.725H697.625L698.777 284.188C698.839 284.425 698.898 284.667 698.953 284.913C699.008 285.158 699.062 285.407 699.114 285.66C699.166 285.912 699.215 286.172 699.261 286.438H699.148C699.197 286.172 699.248 285.912 699.3 285.66C699.352 285.407 699.407 285.158 699.466 284.913C699.524 284.667 699.585 284.425 699.646 284.188L700.823 279.725H701.878L703.045 284.188C703.11 284.425 703.171 284.667 703.228 284.913C703.285 285.158 703.341 285.407 703.396 285.66C703.452 285.912 703.504 286.172 703.553 286.438H703.426C703.475 286.172 703.525 285.912 703.577 285.66C703.629 285.407 703.685 285.158 703.743 284.913C703.802 284.667 703.86 284.425 703.919 284.188L705.066 279.725H706.023L704.031 287H702.952L701.702 282.391C701.621 282.091 701.543 281.765 701.468 281.412C701.393 281.058 701.32 280.651 701.248 280.188H701.443C701.372 280.625 701.302 281.014 701.233 281.358C701.165 281.701 701.084 282.046 700.989 282.391L699.744 287H698.66ZM708.836 287.117C708.309 287.117 707.854 287 707.471 286.766C707.089 286.531 706.794 286.204 706.587 285.784C706.381 285.364 706.277 284.874 706.277 284.314C706.277 283.755 706.378 283.261 706.58 282.835C706.782 282.409 707.068 282.075 707.437 281.834C707.806 281.593 708.239 281.473 708.733 281.473C709.023 281.473 709.309 281.521 709.59 281.617C709.872 281.713 710.127 281.867 710.357 282.081C710.586 282.294 710.77 282.575 710.906 282.923C711.043 283.271 711.111 283.698 711.111 284.202V284.568H706.873V283.826H710.638L710.228 284.1C710.228 283.742 710.171 283.423 710.059 283.145C709.947 282.867 709.78 282.649 709.559 282.491C709.337 282.333 709.062 282.254 708.733 282.254C708.405 282.254 708.123 282.334 707.889 282.496C707.654 282.657 707.475 282.867 707.352 283.125C707.228 283.384 707.166 283.662 707.166 283.958V284.451C707.166 284.855 707.236 285.197 707.376 285.479C707.516 285.761 707.712 285.974 707.964 286.119C708.217 286.264 708.509 286.336 708.841 286.336C709.056 286.336 709.251 286.305 709.427 286.243C709.603 286.181 709.754 286.088 709.881 285.962C710.008 285.837 710.105 285.682 710.174 285.496L711.023 285.73C710.939 286.004 710.796 286.245 710.594 286.453C710.392 286.661 710.142 286.824 709.844 286.941C709.546 287.059 709.21 287.117 708.836 287.117ZM714.666 287.117C714.139 287.117 713.684 287 713.301 286.766C712.919 286.531 712.624 286.204 712.417 285.784C712.211 285.364 712.107 284.874 712.107 284.314C712.107 283.755 712.208 283.261 712.41 282.835C712.612 282.409 712.898 282.075 713.267 281.834C713.637 281.593 714.069 281.473 714.563 281.473C714.853 281.473 715.139 281.521 715.42 281.617C715.702 281.713 715.958 281.867 716.187 282.081C716.417 282.294 716.6 282.575 716.736 282.923C716.873 283.271 716.941 283.698 716.941 284.202V284.568H712.703V283.826H716.468L716.058 284.1C716.058 283.742 716.001 283.423 715.889 283.145C715.777 282.867 715.61 282.649 715.389 282.491C715.167 282.333 714.892 282.254 714.563 282.254C714.235 282.254 713.953 282.334 713.719 282.496C713.484 282.657 713.305 282.867 713.182 283.125C713.058 283.384 712.996 283.662 712.996 283.958V284.451C712.996 284.855 713.066 285.197 713.206 285.479C713.346 285.761 713.542 285.974 713.794 286.119C714.047 286.264 714.339 286.336 714.671 286.336C714.886 286.336 715.081 286.305 715.257 286.243C715.433 286.181 715.584 286.088 715.711 285.962C715.838 285.837 715.936 285.682 716.004 285.496L716.854 285.73C716.769 286.004 716.626 286.245 716.424 286.453C716.222 286.661 715.972 286.824 715.674 286.941C715.376 287.059 715.04 287.117 714.666 287.117ZM719.026 285.037V283.948H719.188L721.521 281.541H722.61L720.086 284.134H719.988L719.026 285.037ZM718.201 287V279.725H719.08V287H718.201ZM721.653 287L719.563 284.329L720.188 283.709L722.781 287H721.653ZM728.831 287.098C728.356 287.098 727.934 287.016 727.566 286.854C727.199 286.691 726.906 286.465 726.69 286.175C726.473 285.885 726.357 285.548 726.341 285.164H727.278C727.298 285.395 727.377 285.595 727.515 285.762C727.653 285.93 727.836 286.058 728.062 286.148C728.288 286.237 728.54 286.282 728.816 286.282C729.122 286.282 729.393 286.229 729.629 286.124C729.865 286.018 730.052 285.869 730.188 285.677C730.325 285.485 730.394 285.263 730.394 285.013C730.394 284.749 730.328 284.517 730.196 284.317C730.064 284.117 729.873 283.96 729.622 283.846C729.371 283.732 729.065 283.675 728.704 283.675H728.113V282.869H728.704C728.987 282.869 729.237 282.818 729.454 282.715C729.67 282.613 729.839 282.469 729.959 282.283C730.079 282.098 730.14 281.88 730.14 281.629C730.14 281.388 730.087 281.178 729.981 280.999C729.875 280.82 729.725 280.681 729.529 280.582C729.334 280.482 729.104 280.433 728.841 280.433C728.593 280.433 728.361 280.477 728.145 280.567C727.929 280.656 727.751 280.784 727.613 280.95C727.474 281.116 727.4 281.318 727.391 281.556H726.497C726.51 281.175 726.624 280.84 726.839 280.55C727.054 280.26 727.338 280.034 727.691 279.871C728.044 279.708 728.434 279.627 728.86 279.627C729.313 279.627 729.703 279.718 730.03 279.9C730.357 280.083 730.608 280.322 730.784 280.618C730.96 280.914 731.048 281.235 731.048 281.58C731.048 281.99 730.94 282.339 730.723 282.625C730.507 282.911 730.213 283.11 729.842 283.221V283.279C730.151 283.328 730.416 283.432 730.635 283.592C730.855 283.751 731.023 283.953 731.138 284.197C731.254 284.441 731.312 284.716 731.312 285.022C731.312 285.42 731.204 285.774 730.989 286.087C730.774 286.399 730.48 286.646 730.105 286.827C729.731 287.007 729.306 287.098 728.831 287.098Z" fill="#5E5E5E"/>
<path d="M1023.46 287L1021.47 279.725H1022.42L1023.57 284.188C1023.64 284.425 1023.69 284.667 1023.75 284.913C1023.81 285.158 1023.86 285.407 1023.91 285.66C1023.96 285.912 1024.01 286.172 1024.06 286.438H1023.95C1023.99 286.172 1024.04 285.912 1024.1 285.66C1024.15 285.407 1024.2 285.158 1024.26 284.913C1024.32 284.667 1024.38 284.425 1024.44 284.188L1025.62 279.725H1026.67L1027.84 284.188C1027.91 284.425 1027.97 284.667 1028.02 284.913C1028.08 285.158 1028.14 285.407 1028.19 285.66C1028.25 285.912 1028.3 286.172 1028.35 286.438H1028.22C1028.27 286.172 1028.32 285.912 1028.37 285.66C1028.43 285.407 1028.48 285.158 1028.54 284.913C1028.6 284.667 1028.66 284.425 1028.72 284.188L1029.86 279.725H1030.82L1028.83 287H1027.75L1026.5 282.391C1026.42 282.091 1026.34 281.765 1026.26 281.412C1026.19 281.058 1026.12 280.651 1026.04 280.188H1026.24C1026.17 280.625 1026.1 281.014 1026.03 281.358C1025.96 281.701 1025.88 282.046 1025.79 282.391L1024.54 287H1023.46ZM1033.63 287.117C1033.11 287.117 1032.65 287 1032.27 286.766C1031.89 286.531 1031.59 286.204 1031.38 285.784C1031.18 285.364 1031.07 284.874 1031.07 284.314C1031.07 283.755 1031.18 283.261 1031.38 282.835C1031.58 282.409 1031.86 282.075 1032.23 281.834C1032.6 281.593 1033.04 281.473 1033.53 281.473C1033.82 281.473 1034.11 281.521 1034.39 281.617C1034.67 281.713 1034.92 281.867 1035.15 282.081C1035.38 282.294 1035.57 282.575 1035.7 282.923C1035.84 283.271 1035.91 283.698 1035.91 284.202V284.568H1031.67V283.826H1035.43L1035.02 284.1C1035.02 283.742 1034.97 283.423 1034.86 283.145C1034.74 282.867 1034.58 282.649 1034.36 282.491C1034.13 282.333 1033.86 282.254 1033.53 282.254C1033.2 282.254 1032.92 282.334 1032.69 282.496C1032.45 282.657 1032.27 282.867 1032.15 283.125C1032.02 283.384 1031.96 283.662 1031.96 283.958V284.451C1031.96 284.855 1032.03 285.197 1032.17 285.479C1032.31 285.761 1032.51 285.974 1032.76 286.119C1033.01 286.264 1033.31 286.336 1033.64 286.336C1033.85 286.336 1034.05 286.305 1034.22 286.243C1034.4 286.181 1034.55 286.088 1034.68 285.962C1034.8 285.837 1034.9 285.682 1034.97 285.496L1035.82 285.73C1035.74 286.004 1035.59 286.245 1035.39 286.453C1035.19 286.661 1034.94 286.824 1034.64 286.941C1034.34 287.059 1034.01 287.117 1033.63 287.117ZM1039.46 287.117C1038.94 287.117 1038.48 287 1038.1 286.766C1037.72 286.531 1037.42 286.204 1037.21 285.784C1037.01 285.364 1036.9 284.874 1036.9 284.314C1036.9 283.755 1037.01 283.261 1037.21 282.835C1037.41 282.409 1037.69 282.075 1038.06 281.834C1038.43 281.593 1038.87 281.473 1039.36 281.473C1039.65 281.473 1039.94 281.521 1040.22 281.617C1040.5 281.713 1040.75 281.867 1040.98 282.081C1041.21 282.294 1041.4 282.575 1041.53 282.923C1041.67 283.271 1041.74 283.698 1041.74 284.202V284.568H1037.5V283.826H1041.26L1040.85 284.1C1040.85 283.742 1040.8 283.423 1040.69 283.145C1040.57 282.867 1040.41 282.649 1040.19 282.491C1039.96 282.333 1039.69 282.254 1039.36 282.254C1039.03 282.254 1038.75 282.334 1038.52 282.496C1038.28 282.657 1038.1 282.867 1037.98 283.125C1037.85 283.384 1037.79 283.662 1037.79 283.958V284.451C1037.79 284.855 1037.86 285.197 1038 285.479C1038.14 285.761 1038.34 285.974 1038.59 286.119C1038.84 286.264 1039.14 286.336 1039.47 286.336C1039.68 286.336 1039.88 286.305 1040.05 286.243C1040.23 286.181 1040.38 286.088 1040.51 285.962C1040.63 285.837 1040.73 285.682 1040.8 285.496L1041.65 285.73C1041.57 286.004 1041.42 286.245 1041.22 286.453C1041.02 286.661 1040.77 286.824 1040.47 286.941C1040.17 287.059 1039.84 287.117 1039.46 287.117ZM1043.82 285.037V283.948H1043.98L1046.32 281.541H1047.41L1044.88 284.134H1044.79L1043.82 285.037ZM1043 287V279.725H1043.88V287H1043ZM1046.45 287L1044.36 284.329L1044.99 283.709L1047.58 287H1046.45ZM1051.11 285.521V284.764L1054.3 279.725H1054.86V280.887H1054.48L1052.1 284.646V284.705H1056.41V285.521H1051.11ZM1054.54 287V285.296L1054.54 284.939V279.725H1055.42V287H1054.54Z" fill="#5E5E5E"/>
<rect x="940.391" y="9" width="148.62" height="23" rx="2" fill="#F9F9F9" fill-opacity="0.8"/>
<rect x="944.391" y="19.5" width="12" height="2" fill="#1E1E1E"/>
<path d="M961.27 24V16.7246H963.848C964.355 16.7246 964.775 16.8117 965.105 16.9858C965.435 17.16 965.681 17.3927 965.842 17.6841C966.003 17.9754 966.084 18.2985 966.084 18.6533C966.084 18.9658 966.029 19.2238 965.918 19.4272C965.807 19.6307 965.662 19.7926 965.481 19.9131C965.3 20.0335 965.104 20.123 964.893 20.1816V20.25C965.12 20.263 965.347 20.3411 965.574 20.4844C965.8 20.6276 965.989 20.8311 966.14 21.0947C966.292 21.3584 966.367 21.6807 966.367 22.0615C966.367 22.4261 966.283 22.7549 966.116 23.0479C965.948 23.3408 965.685 23.5728 965.327 23.7437C964.969 23.9146 964.504 24 963.931 24H961.27ZM962.197 23.1797H963.906C964.473 23.1797 964.875 23.0706 965.115 22.8525C965.354 22.6344 965.474 22.3675 965.474 22.0518C965.474 21.8076 965.412 21.583 965.288 21.3779C965.164 21.1729 964.989 21.0085 964.763 20.8848C964.537 20.7611 964.268 20.6992 963.955 20.6992H962.197V23.1797ZM962.197 19.918H963.799C964.059 19.918 964.295 19.8667 964.507 19.7642C964.718 19.6616 964.886 19.5168 965.01 19.3296C965.133 19.1424 965.195 18.9235 965.195 18.6729C965.195 18.3571 965.085 18.0902 964.866 17.8721C964.646 17.654 964.3 17.5449 963.828 17.5449H962.197V19.918ZM969.233 24.127C968.888 24.127 968.575 24.0618 968.293 23.9316C968.012 23.8014 967.788 23.611 967.622 23.3604C967.456 23.1097 967.373 22.8053 967.373 22.4473C967.373 22.1348 967.435 21.8809 967.559 21.6855C967.682 21.4902 967.847 21.3364 968.054 21.2241C968.261 21.1118 968.49 21.028 968.74 20.9727C968.991 20.9173 969.243 20.8734 969.497 20.8408C969.823 20.7985 970.088 20.766 970.293 20.7432C970.498 20.7204 970.65 20.6813 970.75 20.626C970.849 20.5706 970.898 20.4762 970.898 20.3428V20.3135C970.898 20.0856 970.856 19.8927 970.771 19.7349C970.687 19.577 970.56 19.4557 970.391 19.3711C970.221 19.2865 970.01 19.2441 969.756 19.2441C969.495 19.2441 969.272 19.2848 969.087 19.3662C968.901 19.4476 968.751 19.5493 968.635 19.6714C968.52 19.7935 968.433 19.918 968.374 20.0449L967.529 19.7666C967.669 19.4346 967.858 19.175 968.096 18.9878C968.333 18.8006 968.595 18.668 968.882 18.5898C969.168 18.5117 969.451 18.4727 969.731 18.4727C969.914 18.4727 970.121 18.4946 970.354 18.5386C970.587 18.5825 970.811 18.6696 971.028 18.7998C971.244 18.93 971.423 19.1229 971.565 19.3784C971.707 19.634 971.777 19.9749 971.777 20.4014V24H970.913V23.2578H970.854C970.793 23.3848 970.693 23.5158 970.557 23.6509C970.42 23.786 970.243 23.8991 970.024 23.9902C969.806 24.0814 969.543 24.127 969.233 24.127ZM969.385 23.3506C969.71 23.3506 969.985 23.2871 970.21 23.1602C970.435 23.0332 970.605 22.868 970.723 22.6646C970.84 22.4611 970.898 22.2487 970.898 22.0273V21.2705C970.863 21.3128 970.785 21.3511 970.664 21.3853C970.544 21.4194 970.406 21.4495 970.251 21.4756C970.097 21.5016 969.947 21.5236 969.802 21.5415C969.657 21.5594 969.543 21.5732 969.458 21.583C969.246 21.609 969.049 21.6538 968.865 21.7173C968.681 21.7808 968.534 21.8735 968.423 21.9956C968.312 22.1177 968.257 22.2829 968.257 22.4912C968.257 22.68 968.306 22.8379 968.403 22.9648C968.501 23.0918 968.634 23.1878 968.804 23.2529C968.973 23.318 969.167 23.3506 969.385 23.3506ZM975.176 24.1172C974.801 24.1172 974.469 24.0627 974.177 23.9536C973.886 23.8446 973.646 23.6826 973.457 23.4678C973.268 23.2529 973.141 22.9893 973.076 22.6768L973.911 22.4766C973.989 22.776 974.137 22.9958 974.353 23.1357C974.569 23.2757 974.84 23.3457 975.166 23.3457C975.547 23.3457 975.85 23.2643 976.077 23.1016C976.303 22.9388 976.416 22.7451 976.416 22.5205C976.416 22.3317 976.35 22.1746 976.218 22.0493C976.086 21.924 975.885 21.8304 975.615 21.7686L974.707 21.5537C974.212 21.4365 973.844 21.255 973.604 21.0093C973.363 20.7635 973.242 20.4486 973.242 20.0645C973.242 19.752 973.33 19.4761 973.506 19.2368C973.682 18.9976 973.922 18.8104 974.226 18.6753C974.53 18.5402 974.876 18.4727 975.264 18.4727C975.638 18.4727 975.956 18.5288 976.218 18.6411C976.48 18.7534 976.694 18.908 976.858 19.105C977.022 19.3019 977.145 19.529 977.227 19.7861L976.431 19.9912C976.356 19.7959 976.231 19.6185 976.057 19.459C975.883 19.2995 975.62 19.2197 975.269 19.2197C974.943 19.2197 974.672 19.2946 974.456 19.4443C974.239 19.5941 974.131 19.7829 974.131 20.0107C974.131 20.2126 974.204 20.3745 974.351 20.4966C974.497 20.6187 974.73 20.7171 975.049 20.792L975.874 20.9873C976.369 21.1045 976.735 21.286 976.973 21.5317C977.21 21.7775 977.329 22.0876 977.329 22.4619C977.329 22.7809 977.239 23.0649 977.058 23.314C976.877 23.563 976.625 23.7591 976.301 23.9023C975.977 24.0456 975.602 24.1172 975.176 24.1172ZM980.894 24.1172C980.366 24.1172 979.911 24 979.529 23.7656C979.146 23.5312 978.852 23.2041 978.645 22.7842C978.438 22.3643 978.335 21.8743 978.335 21.3145C978.335 20.7546 978.436 20.2614 978.638 19.835C978.84 19.4085 979.125 19.0749 979.495 18.834C979.864 18.5931 980.296 18.4727 980.791 18.4727C981.081 18.4727 981.366 18.5207 981.648 18.6167C981.93 18.7127 982.185 18.8674 982.415 19.0806C982.644 19.2938 982.827 19.5745 982.964 19.9229C983.101 20.2712 983.169 20.6976 983.169 21.2021V21.5684H978.931V20.8262H982.695L982.285 21.0996C982.285 20.7415 982.229 20.4233 982.117 20.145C982.004 19.8667 981.838 19.6486 981.616 19.4907C981.395 19.3328 981.12 19.2539 980.791 19.2539C980.462 19.2539 980.181 19.3345 979.946 19.4956C979.712 19.6567 979.533 19.8667 979.409 20.1255C979.285 20.3843 979.224 20.6618 979.224 20.958V21.4512C979.224 21.8548 979.294 22.1974 979.434 22.479C979.574 22.7606 979.77 22.9738 980.022 23.1187C980.274 23.2635 980.566 23.3359 980.898 23.3359C981.113 23.3359 981.309 23.305 981.484 23.2432C981.66 23.1813 981.812 23.0877 981.938 22.9624C982.065 22.8371 982.163 22.6816 982.231 22.4961L983.081 22.7305C982.996 23.0039 982.853 23.2448 982.651 23.4531C982.45 23.6615 982.2 23.8242 981.902 23.9414C981.604 24.0586 981.268 24.1172 980.894 24.1172ZM985.308 16.7246V24H984.429V16.7246H985.308ZM986.851 24V18.541H987.729V24H986.851ZM987.295 17.6475C987.129 17.6475 986.986 17.5905 986.865 17.4766C986.745 17.3626 986.685 17.2259 986.685 17.0664C986.685 16.9036 986.745 16.7661 986.865 16.6538C986.986 16.5415 987.129 16.4854 987.295 16.4854C987.464 16.4854 987.609 16.5415 987.729 16.6538C987.85 16.7661 987.91 16.9036 987.91 17.0664C987.91 17.2259 987.85 17.3626 987.729 17.4766C987.609 17.5905 987.464 17.6475 987.295 17.6475ZM990.151 20.7285V24H989.272V18.541H990.117L990.122 19.8643H990C990.166 19.3597 990.403 19.0016 990.71 18.79C991.018 18.5785 991.379 18.4727 991.792 18.4727C992.16 18.4727 992.482 18.5483 992.759 18.6997C993.035 18.8511 993.251 19.0789 993.406 19.3833C993.56 19.6877 993.638 20.071 993.638 20.5332V24H992.759V20.6064C992.759 20.1865 992.649 19.8577 992.429 19.6201C992.209 19.3825 991.909 19.2637 991.528 19.2637C991.268 19.2637 991.034 19.3206 990.825 19.4346C990.617 19.5485 990.452 19.7145 990.332 19.9326C990.212 20.1507 990.151 20.416 990.151 20.7285ZM997.476 24.1172C996.948 24.1172 996.493 24 996.111 23.7656C995.728 23.5312 995.434 23.2041 995.227 22.7842C995.02 22.3643 994.917 21.8743 994.917 21.3145C994.917 20.7546 995.018 20.2614 995.22 19.835C995.422 19.4085 995.707 19.0749 996.077 18.834C996.446 18.5931 996.878 18.4727 997.373 18.4727C997.663 18.4727 997.948 18.5207 998.23 18.6167C998.512 18.7127 998.767 18.8674 998.997 19.0806C999.226 19.2938 999.409 19.5745 999.546 19.9229C999.683 20.2712 999.751 20.6976 999.751 21.2021V21.5684H995.513V20.8262H999.277L998.867 21.0996C998.867 20.7415 998.811 20.4233 998.699 20.145C998.586 19.8667 998.42 19.6486 998.198 19.4907C997.977 19.3328 997.702 19.2539 997.373 19.2539C997.044 19.2539 996.763 19.3345 996.528 19.4956C996.294 19.6567 996.115 19.8667 995.991 20.1255C995.868 20.3843 995.806 20.6618 995.806 20.958V21.4512C995.806 21.8548 995.876 22.1974 996.016 22.479C996.156 22.7606 996.352 22.9738 996.604 23.1187C996.856 23.2635 997.148 23.3359 997.48 23.3359C997.695 23.3359 997.891 23.305 998.066 23.2432C998.242 23.1813 998.394 23.0877 998.521 22.9624C998.647 22.8371 998.745 22.6816 998.813 22.4961L999.663 22.7305C999.578 23.0039 999.435 23.2448 999.233 23.4531C999.032 23.6615 998.782 23.8242 998.484 23.9414C998.186 24.0586 997.85 24.1172 997.476 24.1172Z" fill="#1E1E1E"/>
<mask id="path-28-inside-1_309_2130" fill="white">
<path d="M1016.24 19.5H1028.24V21.5H1016.24V19.5Z"/>
</mask>
<path d="M1016.24 19.5H1028.24V21.5H1016.24V19.5Z" fill="#747878"/>
<path d="M1028.24 19.5V19H1026.44V19.5V20H1028.24V19.5ZM1024.04 19.5V19H1020.44V19.5V20H1024.04V19.5ZM1018.04 19.5V19H1016.24V19.5V20H1018.04V19.5ZM1028.24 19.5V18.5H1026.44V19.5V20.5H1028.24V19.5ZM1024.04 19.5V18.5H1020.44V19.5V20.5H1024.04V19.5ZM1018.04 19.5V18.5H1016.24V19.5V20.5H1018.04V19.5Z" fill="#747878" mask="url(#path-28-inside-1_309_2130)"/>
<path d="M1033.12 24V16.7246H1037.52V17.5449H1034.05V20.0352H1037.19V20.8555H1034.05V24H1033.12ZM1040.74 24.1172C1040.25 24.1172 1039.81 24 1039.44 23.7656C1039.07 23.5312 1038.78 23.2025 1038.57 22.7793C1038.36 22.3561 1038.26 21.8646 1038.26 21.3047C1038.26 20.735 1038.36 20.2378 1038.57 19.813C1038.78 19.3882 1039.07 19.0586 1039.44 18.8242C1039.81 18.5898 1040.25 18.4727 1040.74 18.4727C1041.24 18.4727 1041.68 18.5898 1042.05 18.8242C1042.42 19.0586 1042.72 19.3882 1042.92 19.813C1043.13 20.2378 1043.24 20.735 1043.24 21.3047C1043.24 21.8646 1043.13 22.3561 1042.92 22.7793C1042.72 23.2025 1042.42 23.5312 1042.05 23.7656C1041.68 24 1041.24 24.1172 1040.74 24.1172ZM1040.74 23.3311C1041.11 23.3311 1041.41 23.2367 1041.65 23.0479C1041.89 22.859 1042.06 22.6108 1042.18 22.3032C1042.29 21.9956 1042.35 21.6628 1042.35 21.3047C1042.35 20.9434 1042.29 20.6073 1042.18 20.2964C1042.06 19.9855 1041.89 19.7349 1041.65 19.5444C1041.41 19.354 1041.11 19.2588 1040.74 19.2588C1040.38 19.2588 1040.08 19.354 1039.84 19.5444C1039.61 19.7349 1039.43 19.9847 1039.32 20.2939C1039.21 20.6032 1039.15 20.9401 1039.15 21.3047C1039.15 21.6628 1039.21 21.9956 1039.32 22.3032C1039.43 22.6108 1039.61 22.859 1039.84 23.0479C1040.08 23.2367 1040.38 23.3311 1040.74 23.3311ZM1044.52 24V18.541H1045.37V19.3809H1045.42C1045.52 19.1042 1045.7 18.882 1045.96 18.7144C1046.22 18.5467 1046.51 18.4629 1046.84 18.4629C1046.9 18.4629 1046.98 18.4645 1047.07 18.4678C1047.16 18.471 1047.23 18.4743 1047.28 18.4775V19.3613C1047.26 19.3548 1047.19 19.3451 1047.09 19.332C1046.98 19.319 1046.87 19.3125 1046.76 19.3125C1046.5 19.3125 1046.26 19.367 1046.06 19.4761C1045.85 19.5851 1045.69 19.7349 1045.57 19.9253C1045.45 20.1157 1045.39 20.3346 1045.39 20.582V24H1044.52ZM1050.41 24.1172C1049.88 24.1172 1049.43 24 1049.04 23.7656C1048.66 23.5312 1048.37 23.2041 1048.16 22.7842C1047.95 22.3643 1047.85 21.8743 1047.85 21.3145C1047.85 20.7546 1047.95 20.2614 1048.15 19.835C1048.36 19.4085 1048.64 19.0749 1049.01 18.834C1049.38 18.5931 1049.81 18.4727 1050.31 18.4727C1050.6 18.4727 1050.88 18.5207 1051.16 18.6167C1051.45 18.7127 1051.7 18.8674 1051.93 19.0806C1052.16 19.2938 1052.34 19.5745 1052.48 19.9229C1052.62 20.2712 1052.68 20.6976 1052.68 21.2021V21.5684H1048.45V20.8262H1052.21L1051.8 21.0996C1051.8 20.7415 1051.74 20.4233 1051.63 20.145C1051.52 19.8667 1051.35 19.6486 1051.13 19.4907C1050.91 19.3328 1050.64 19.2539 1050.31 19.2539C1049.98 19.2539 1049.7 19.3345 1049.46 19.4956C1049.23 19.6567 1049.05 19.8667 1048.92 20.1255C1048.8 20.3843 1048.74 20.6618 1048.74 20.958V21.4512C1048.74 21.8548 1048.81 22.1974 1048.95 22.479C1049.09 22.7606 1049.29 22.9738 1049.54 23.1187C1049.79 23.2635 1050.08 23.3359 1050.41 23.3359C1050.63 23.3359 1050.82 23.305 1051 23.2432C1051.18 23.1813 1051.33 23.0877 1051.45 22.9624C1051.58 22.8371 1051.68 22.6816 1051.75 22.4961L1052.6 22.7305C1052.51 23.0039 1052.37 23.2448 1052.17 23.4531C1051.97 23.6615 1051.72 23.8242 1051.42 23.9414C1051.12 24.0586 1050.78 24.1172 1050.41 24.1172ZM1056.17 24.1172C1055.67 24.1172 1055.24 24 1054.86 23.7656C1054.49 23.5312 1054.2 23.2025 1053.99 22.7793C1053.78 22.3561 1053.68 21.8646 1053.68 21.3047C1053.68 20.735 1053.78 20.2378 1053.99 19.813C1054.2 19.3882 1054.49 19.0586 1054.86 18.8242C1055.24 18.5898 1055.67 18.4727 1056.17 18.4727C1056.43 18.4727 1056.68 18.5068 1056.91 18.5752C1057.15 18.6436 1057.36 18.742 1057.56 18.8706C1057.75 18.9992 1057.92 19.1571 1058.06 19.3442C1058.2 19.5314 1058.3 19.7438 1058.38 19.9814L1057.53 20.2207C1057.49 20.0807 1057.43 19.9521 1057.35 19.835C1057.27 19.7178 1057.17 19.616 1057.06 19.5298C1056.94 19.4435 1056.81 19.3768 1056.66 19.3296C1056.51 19.2824 1056.35 19.2588 1056.17 19.2588C1055.8 19.2588 1055.5 19.354 1055.27 19.5444C1055.03 19.7349 1054.86 19.9847 1054.75 20.2939C1054.63 20.6032 1054.57 20.9401 1054.57 21.3047C1054.57 21.6628 1054.63 21.9956 1054.75 22.3032C1054.86 22.6108 1055.03 22.859 1055.27 23.0479C1055.5 23.2367 1055.8 23.3311 1056.17 23.3311C1056.35 23.3311 1056.52 23.3066 1056.67 23.2578C1056.82 23.209 1056.96 23.1398 1057.08 23.0503C1057.2 22.9608 1057.3 22.8542 1057.38 22.7305C1057.46 22.6068 1057.52 22.4717 1057.56 22.3252L1058.4 22.5645C1058.33 22.8086 1058.22 23.0259 1058.08 23.2163C1057.94 23.4067 1057.77 23.5695 1057.57 23.7046C1057.38 23.8397 1057.16 23.9422 1056.92 24.0122C1056.69 24.0822 1056.43 24.1172 1056.17 24.1172ZM1061.28 24.127C1060.94 24.127 1060.62 24.0618 1060.34 23.9316C1060.06 23.8014 1059.84 23.611 1059.67 23.3604C1059.51 23.1097 1059.42 22.8053 1059.42 22.4473C1059.42 22.1348 1059.48 21.8809 1059.61 21.6855C1059.73 21.4902 1059.9 21.3364 1060.1 21.2241C1060.31 21.1118 1060.54 21.028 1060.79 20.9727C1061.04 20.9173 1061.29 20.8734 1061.55 20.8408C1061.87 20.7985 1062.14 20.766 1062.34 20.7432C1062.55 20.7204 1062.7 20.6813 1062.8 20.626C1062.9 20.5706 1062.95 20.4762 1062.95 20.3428V20.3135C1062.95 20.0856 1062.91 19.8927 1062.82 19.7349C1062.74 19.577 1062.61 19.4557 1062.44 19.3711C1062.27 19.2865 1062.06 19.2441 1061.81 19.2441C1061.55 19.2441 1061.32 19.2848 1061.14 19.3662C1060.95 19.4476 1060.8 19.5493 1060.69 19.6714C1060.57 19.7935 1060.48 19.918 1060.42 20.0449L1059.58 19.7666C1059.72 19.4346 1059.91 19.175 1060.15 18.9878C1060.38 18.8006 1060.65 18.668 1060.93 18.5898C1061.22 18.5117 1061.5 18.4727 1061.78 18.4727C1061.96 18.4727 1062.17 18.4946 1062.4 18.5386C1062.64 18.5825 1062.86 18.6696 1063.08 18.7998C1063.29 18.93 1063.47 19.1229 1063.61 19.3784C1063.76 19.634 1063.83 19.9749 1063.83 20.4014V24H1062.96V23.2578H1062.9C1062.84 23.3848 1062.74 23.5158 1062.61 23.6509C1062.47 23.786 1062.29 23.8991 1062.07 23.9902C1061.86 24.0814 1061.59 24.127 1061.28 24.127ZM1061.43 23.3506C1061.76 23.3506 1062.04 23.2871 1062.26 23.1602C1062.48 23.0332 1062.66 22.868 1062.77 22.6646C1062.89 22.4611 1062.95 22.2487 1062.95 22.0273V21.2705C1062.91 21.3128 1062.83 21.3511 1062.71 21.3853C1062.59 21.4194 1062.46 21.4495 1062.3 21.4756C1062.15 21.5016 1062 21.5236 1061.85 21.5415C1061.71 21.5594 1061.59 21.5732 1061.51 21.583C1061.3 21.609 1061.1 21.6538 1060.91 21.7173C1060.73 21.7808 1060.58 21.8735 1060.47 21.9956C1060.36 22.1177 1060.31 22.2829 1060.31 22.4912C1060.31 22.68 1060.36 22.8379 1060.45 22.9648C1060.55 23.0918 1060.68 23.1878 1060.85 23.2529C1061.02 23.318 1061.22 23.3506 1061.43 23.3506ZM1067.23 24.1172C1066.85 24.1172 1066.52 24.0627 1066.23 23.9536C1065.94 23.8446 1065.7 23.6826 1065.51 23.4678C1065.32 23.2529 1065.19 22.9893 1065.13 22.6768L1065.96 22.4766C1066.04 22.776 1066.19 22.9958 1066.4 23.1357C1066.62 23.2757 1066.89 23.3457 1067.22 23.3457C1067.6 23.3457 1067.9 23.2643 1068.13 23.1016C1068.35 22.9388 1068.47 22.7451 1068.47 22.5205C1068.47 22.3317 1068.4 22.1746 1068.27 22.0493C1068.14 21.924 1067.94 21.8304 1067.67 21.7686L1066.76 21.5537C1066.26 21.4365 1065.89 21.255 1065.65 21.0093C1065.41 20.7635 1065.29 20.4486 1065.29 20.0645C1065.29 19.752 1065.38 19.4761 1065.56 19.2368C1065.73 18.9976 1065.97 18.8104 1066.28 18.6753C1066.58 18.5402 1066.93 18.4727 1067.31 18.4727C1067.69 18.4727 1068.01 18.5288 1068.27 18.6411C1068.53 18.7534 1068.74 18.908 1068.91 19.105C1069.07 19.3019 1069.19 19.529 1069.28 19.7861L1068.48 19.9912C1068.41 19.7959 1068.28 19.6185 1068.11 19.459C1067.93 19.2995 1067.67 19.2197 1067.32 19.2197C1066.99 19.2197 1066.72 19.2946 1066.51 19.4443C1066.29 19.5941 1066.18 19.7829 1066.18 20.0107C1066.18 20.2126 1066.25 20.3745 1066.4 20.4966C1066.55 20.6187 1066.78 20.7171 1067.1 20.792L1067.92 20.9873C1068.42 21.1045 1068.78 21.286 1069.02 21.5317C1069.26 21.7775 1069.38 22.0876 1069.38 22.4619C1069.38 22.7809 1069.29 23.0649 1069.11 23.314C1068.93 23.563 1068.67 23.7591 1068.35 23.9023C1068.03 24.0456 1067.65 24.1172 1067.23 24.1172ZM1072.8 18.541V19.293H1069.97V18.541H1072.8ZM1070.79 17.2422H1071.67V22.584C1071.67 22.8281 1071.72 23.0063 1071.82 23.1187C1071.92 23.231 1072.09 23.2871 1072.32 23.2871C1072.37 23.2871 1072.44 23.2806 1072.53 23.2676C1072.62 23.2546 1072.7 23.2415 1072.77 23.2285L1072.95 23.9707C1072.86 24.0033 1072.75 24.0277 1072.64 24.0439C1072.52 24.0602 1072.41 24.0684 1072.29 24.0684C1071.82 24.0684 1071.45 23.9438 1071.19 23.6948C1070.93 23.4458 1070.79 23.0983 1070.79 22.6523V17.2422ZM1076.12 24.1172C1075.59 24.1172 1075.13 24 1074.75 23.7656C1074.37 23.5312 1074.08 23.2041 1073.87 22.7842C1073.66 22.3643 1073.56 21.8743 1073.56 21.3145C1073.56 20.7546 1073.66 20.2614 1073.86 19.835C1074.06 19.4085 1074.35 19.0749 1074.72 18.834C1075.09 18.5931 1075.52 18.4727 1076.01 18.4727C1076.3 18.4727 1076.59 18.5207 1076.87 18.6167C1077.15 18.7127 1077.41 18.8674 1077.64 19.0806C1077.87 19.2938 1078.05 19.5745 1078.19 19.9229C1078.32 20.2712 1078.39 20.6976 1078.39 21.2021V21.5684H1074.15V20.8262H1077.92L1077.51 21.0996C1077.51 20.7415 1077.45 20.4233 1077.34 20.145C1077.23 19.8667 1077.06 19.6486 1076.84 19.4907C1076.62 19.3328 1076.34 19.2539 1076.01 19.2539C1075.69 19.2539 1075.4 19.3345 1075.17 19.4956C1074.94 19.6567 1074.76 19.8667 1074.63 20.1255C1074.51 20.3843 1074.45 20.6618 1074.45 20.958V21.4512C1074.45 21.8548 1074.52 22.1974 1074.66 22.479C1074.8 22.7606 1074.99 22.9738 1075.25 23.1187C1075.5 23.2635 1075.79 23.3359 1076.12 23.3359C1076.34 23.3359 1076.53 23.305 1076.71 23.2432C1076.88 23.1813 1077.04 23.0877 1077.16 22.9624C1077.29 22.8371 1077.39 22.6816 1077.46 22.4961L1078.3 22.7305C1078.22 23.0039 1078.08 23.2448 1077.88 23.4531C1077.67 23.6615 1077.42 23.8242 1077.13 23.9414C1076.83 24.0586 1076.49 24.1172 1076.12 24.1172ZM1081.7 24.1172C1081.25 24.1172 1080.85 24.0016 1080.5 23.7705C1080.15 23.5394 1079.88 23.2122 1079.68 22.7891C1079.49 22.3659 1079.39 21.8646 1079.39 21.2852C1079.39 20.709 1079.49 20.2101 1079.68 19.7886C1079.88 19.367 1080.15 19.0423 1080.5 18.8145C1080.85 18.5866 1081.25 18.4727 1081.7 18.4727C1082.06 18.4727 1082.34 18.5312 1082.55 18.6484C1082.76 18.7656 1082.92 18.8983 1083.03 19.0464C1083.14 19.1945 1083.23 19.3174 1083.29 19.415H1083.35V16.7246H1084.23V24H1083.38V23.1553H1083.29C1083.23 23.2562 1083.14 23.3823 1083.02 23.5337C1082.91 23.6851 1082.75 23.8201 1082.54 23.939C1082.33 24.0578 1082.05 24.1172 1081.7 24.1172ZM1081.83 23.3311C1082.16 23.3311 1082.44 23.244 1082.67 23.0698C1082.9 22.8957 1083.07 22.654 1083.19 22.3447C1083.3 22.0355 1083.36 21.679 1083.36 21.2754C1083.36 20.8717 1083.31 20.5194 1083.19 20.2183C1083.07 19.9172 1082.9 19.682 1082.67 19.5127C1082.45 19.3434 1082.17 19.2588 1081.83 19.2588C1081.49 19.2588 1081.2 19.3483 1080.97 19.5273C1080.74 19.7064 1080.57 19.9481 1080.45 20.2524C1080.34 20.5568 1080.28 20.8978 1080.28 21.2754C1080.28 21.6562 1080.34 22.0021 1080.46 22.313C1080.57 22.6239 1080.74 22.8713 1080.98 23.0552C1081.21 23.2391 1081.49 23.3311 1081.83 23.3311Z" fill="#1E1E1E"/>
<defs>
<clipPath id="clip0_309_2130">
<rect width="1104" height="298" fill="white" transform="translate(1 1)"/>
</clipPath>
</defs>
</svg>
