<svg width="941" height="255" viewBox="0 0 941 255" fill="none" xmlns="http://www.w3.org/2000/svg">
<rect x="0.5" y="0.5" width="940" height="254" fill="white"/>
<rect x="0.5" y="0.5" width="940" height="254" stroke="#C4C7C7" stroke-dasharray="3 2"/>
<g clip-path="url(#clip0_309_2510)">
<g opacity="0.3">
<path d="M22.5 72.25H914.5H22.5Z" fill="black"/>
<path d="M22.5 72.25H914.5H22.5" stroke="#5E5E5E" stroke-width="1.115" stroke-dasharray="4.46 4.46"/>
</g>
<g opacity="0.3">
<path d="M22.5 127.5H914.5H22.5Z" fill="black"/>
<path d="M22.5 127.5H914.5H22.5" stroke="#5E5E5E" stroke-width="1.115" stroke-dasharray="4.46 4.46"/>
</g>
<g opacity="0.3">
<path d="M22.5 182.75H914.5H22.5Z" fill="black"/>
<path d="M22.5 182.75H914.5H22.5" stroke="#5E5E5E" stroke-width="1.115" stroke-dasharray="4.46 4.46"/>
</g>
<g opacity="0.5">
<path d="M22.5 238H914.5H22.5Z" fill="black"/>
<path d="M22.5 238H914.5H22.5" stroke="#5E5E5E" stroke-width="1.115"/>
</g>
<path d="M22.5 217.4L134 150.5L245.5 172.8L357 117.05L468.5 139.35L580 83.6004L691.5 105.9L803 50.1504L914.5 72.4504" stroke="#5E5E5E" stroke-width="2.23"/>
<path d="M18.0195 215.94C18.0195 218.402 20.018 220.4 22.4795 220.4C24.9411 220.4 26.9395 218.402 26.9395 215.94C26.9395 213.479 24.9411 211.48 22.4795 211.48C20.018 211.48 18.0195 213.479 18.0195 215.94Z" fill="#5E5E5E"/>
<path d="M130.02 149.64C130.02 152.101 132.018 154.1 134.48 154.1C136.941 154.1 138.94 152.101 138.94 149.64C138.94 147.178 136.941 145.18 134.48 145.18C132.018 145.18 130.02 147.178 130.02 149.64Z" fill="#5E5E5E"/>
<path d="M242.02 171.739C242.02 174.201 244.018 176.199 246.48 176.199C248.941 176.199 250.94 174.201 250.94 171.739C250.94 169.278 248.941 167.279 246.48 167.279C244.018 167.279 242.02 169.278 242.02 171.739Z" fill="#5E5E5E"/>
<path d="M354.02 116.489C354.02 118.951 356.018 120.949 358.48 120.949C360.941 120.949 362.94 118.951 362.94 116.489C362.94 114.028 360.941 112.029 358.48 112.029C356.018 112.029 354.02 114.028 354.02 116.489Z" fill="#5E5E5E"/>
<path d="M466.02 138.591C466.02 141.052 468.018 143.051 470.48 143.051C472.941 143.051 474.94 141.052 474.94 138.591C474.94 136.129 472.941 134.131 470.48 134.131C468.018 134.131 466.02 136.129 466.02 138.591Z" fill="#5E5E5E"/>
<path d="M578.02 83.3409C578.02 85.8024 580.018 87.8009 582.48 87.8009C584.941 87.8009 586.94 85.8024 586.94 83.3409C586.94 80.8793 584.941 78.8809 582.48 78.8809C580.018 78.8809 578.02 80.8793 578.02 83.3409Z" fill="#5E5E5E"/>
<path d="M690.02 105.44C690.02 107.902 692.018 109.9 694.48 109.9C696.941 109.9 698.94 107.902 698.94 105.44C698.94 102.979 696.941 100.98 694.48 100.98C692.018 100.98 690.02 102.979 690.02 105.44Z" fill="#5E5E5E"/>
<path d="M802.02 50.1905C802.02 52.652 804.018 54.6505 806.48 54.6505C808.941 54.6505 810.94 52.652 810.94 50.1905C810.94 47.7289 808.941 45.7305 806.48 45.7305C804.018 45.7305 802.02 47.7289 802.02 50.1905Z" fill="#5E5E5E"/>
<path d="M914.02 72.2901C914.02 74.7516 916.018 76.7501 918.48 76.7501C920.941 76.7501 922.94 74.7516 922.94 72.2901C922.94 69.8285 920.941 67.8301 918.48 67.8301C916.018 67.8301 914.02 69.8285 914.02 72.2901Z" fill="#5E5E5E"/>
</g>
<defs>
<clipPath id="clip0_309_2510">
<rect width="896" height="221" fill="white" transform="translate(22.5 17)"/>
</clipPath>
</defs>
</svg>
